<svg width="24" height="24" viewBox="0 0 24 24" xmlns="http://www.w3.org/2000/svg">
    <path d="m.787 1.093 12.495 5.968c.472.207.787.674.787 1.038V22.94c0 .364-.368.52-.787.312L.787 17.284C.315 17.076 0 16.609 0 16.246V1.404c0-.363.367-.519.787-.311zm2.682.323L23.1 2.925c.53 0 .901.364.901.728v14.67c0 .364-.424.624-.902.572l-8.064-.624v-5.93l6.26.467v-1.456l-6.26-.468V9.479l6.26.468V8.491l-6.313-.468a2.532 2.532 0 0 0-.901-1.457l7.267.572V5.682l-10.663-.833L3.47 1.416z" fill="#6244BB" fill-rule="evenodd"/>
</svg>
