<?xml version="1.0" encoding="UTF-8"?>
<svg width="241px" height="31px" viewBox="0 0 241 31" version="1.1" xmlns="http://www.w3.org/2000/svg" xmlns:xlink="http://www.w3.org/1999/xlink">
    <title>AB_lockup_web_RGB</title>
    <defs>
        <polygon id="path-1" points="-2.84217094e-14 0 143.568 0 143.568 30.371 -2.84217094e-14 30.371"></polygon>
    </defs>
    <g id="AB_lockup_web_RGB" stroke="none" stroke-width="1" fill="none" fill-rule="evenodd">
        <polyline id="Fill-1" fill="#E9832C" points="115.453 22.917 130.288 22.917 130.288 0.923 115.453 22.917"></polyline>
        <g id="Group-5" transform="translate(97.042000, 0.569000)">
            <mask id="mask-2" fill="white">
                <use xlink:href="#path-1"></use>
            </mask>
            <g id="Clip-3"></g>
            <polyline id="Fill-2" fill="#DB512A" mask="url(#mask-2)" points="-2.84217094e-14 0 -2.84217094e-14 22.348 33.246 0 -2.84217094e-14 0"></polyline>
            <path d="M135.418,19.121 C133.553,19.121 132.685,18.212 132.685,16.253 L132.685,8.758 L136.27,8.758 L136.27,5.514 L132.685,5.514 L132.685,0.871 L129.018,0.871 L129.018,16.253 C129.018,20.146 131.248,22.477 134.841,22.477 C135.589,22.477 136.331,22.369 136.331,22.369 L136.331,19.077 C135.87,19.116 135.61,19.121 135.418,19.121 L135.418,19.121 Z M141.136,3.044 C141.406,3.044 141.718,2.971 141.718,2.648 C141.718,2.358 141.439,2.284 141.188,2.284 L140.751,2.284 L140.751,3.044 L141.136,3.044 Z M140.274,1.879 L141.21,1.879 C141.708,1.879 142.197,2.088 142.197,2.659 C142.197,3.044 141.958,3.293 141.584,3.376 L142.299,4.539 L141.718,4.539 L141.095,3.428 L140.751,3.428 L140.751,4.539 L140.274,4.539 L140.274,1.879 Z M141.198,5.216 C142.299,5.216 143.193,4.311 143.193,3.22 C143.193,2.119 142.299,1.225 141.198,1.225 C140.098,1.225 139.203,2.119 139.203,3.22 C139.203,4.311 140.098,5.216 141.198,5.216 L141.198,5.216 Z M141.198,0.861 C142.508,0.861 143.568,1.911 143.568,3.22 C143.568,4.529 142.508,5.558 141.198,5.558 C139.89,5.558 138.829,4.529 138.829,3.22 C138.829,1.911 139.89,0.861 141.198,0.861 L141.198,0.861 Z M45.763,9.183 C46.438,9.183 47.528,9.142 48.168,8.834 C49.136,8.303 49.446,7.472 49.446,6.208 C49.446,4.849 48.628,4.044 47.939,3.722 C47.412,3.457 46.735,3.345 45.676,3.345 L42.575,3.345 L42.575,9.183 L45.763,9.183 Z M46.37,18.998 C47.335,18.998 48.085,18.882 48.672,18.647 C49.875,18.108 50.593,17.124 50.619,15.686 C50.619,14.315 49.848,13.264 48.67,12.759 C47.818,12.405 47.123,12.38 46.074,12.38 L42.575,12.38 L42.575,18.998 L46.37,18.998 Z M38.843,22.348 L38.843,0 L46.597,0 C49.615,0 53.261,1.589 53.261,5.789 C53.261,8.301 52.086,9.911 51.029,10.512 C53.872,11.603 54.429,14.304 54.429,15.897 C54.429,19.469 51.483,22.348 46.8,22.348 L38.843,22.348 Z M71.426,14.08 L71.426,5.504 L67.754,5.504 L67.754,14.08 C67.754,17.128 66.194,19.098 63.75,19.098 C61.314,19.098 59.754,17.128 59.754,14.08 L59.754,5.504 L56.076,5.504 L56.076,14.08 C56.076,19.197 59.487,22.469 63.75,22.469 C68.021,22.469 71.426,19.197 71.426,14.08 L71.426,14.08 Z M81.63,8.529 C78.989,8.529 76.922,10.861 76.922,13.845 C76.922,16.742 79.028,19.093 81.63,19.093 C84.211,19.093 86.391,16.694 86.391,13.845 C86.391,10.914 84.253,8.529 81.63,8.529 L81.63,8.529 Z M81.63,22.469 C76.932,22.469 73.243,18.718 73.243,13.815 C73.243,8.894 76.932,5.125 81.63,5.125 C83.343,5.125 85.07,5.746 86.391,6.942 L86.391,0 L90.058,0 L90.058,22.127 L86.482,22.127 L86.482,20.577 C85.17,21.822 83.411,22.469 81.63,22.469 L81.63,22.469 Z M100.478,19.088 C97.837,19.088 95.77,16.735 95.77,13.751 C95.77,10.852 97.875,8.503 100.478,8.503 C103.058,8.503 105.239,10.903 105.239,13.751 C105.239,16.68 103.102,19.088 100.478,19.088 L100.478,19.088 Z M105.331,5.504 L105.331,7.019 C104.018,5.776 102.259,5.125 100.478,5.125 C95.781,5.125 92.097,8.877 92.097,13.782 C92.097,18.702 95.781,22.469 100.478,22.469 C102.19,22.469 103.918,21.848 105.239,20.653 C105.239,20.653 105.982,26.999 100.387,26.999 C98.029,26.999 96.364,25.304 95.616,24.026 C95.617,24.026 92.683,26.087 92.683,26.087 C94.124,28.78 97.177,30.431 100.387,30.431 C102.548,30.431 104.672,29.819 106.182,28.495 C107.955,26.93 108.928,24.754 108.928,21.82 L108.928,5.504 L105.331,5.504 Z M114.745,12.246 C114.877,11.253 116.083,8.478 119.082,8.478 C121.989,8.478 123.263,11.166 123.377,12.246 L114.745,12.246 Z M124.86,7.478 C123.329,5.873 121.249,5.127 119.077,5.127 C114.433,5.127 110.857,8.984 110.857,13.83 C110.857,18.722 114.354,22.469 119.165,22.469 C121.695,22.469 124.255,21.157 125.825,19.15 L122.962,17.144 C122.019,18.437 120.418,19.118 119.165,19.118 C117.203,19.118 115.205,17.715 114.715,15.306 L127.02,15.306 C127.02,15.306 128.145,10.924 124.86,7.478 L124.86,7.478 Z" id="Fill-4" fill="#1C2546" mask="url(#mask-2)"></path>
        </g>
        <path d="M76.577,3.183 L76.577,2.555 L76.937,2.555 C77.144,2.555 77.372,2.615 77.372,2.86 C77.372,3.123 77.12,3.183 76.886,3.183 L76.577,3.183 Z M76.178,4.423 L76.577,4.423 L76.577,3.507 L76.865,3.507 L77.372,4.423 L77.856,4.423 L77.264,3.461 C77.572,3.388 77.768,3.183 77.768,2.864 C77.768,2.395 77.367,2.221 76.946,2.221 L76.178,2.221 L76.178,4.423 Z M75.298,3.333 C75.298,2.421 76.035,1.679 76.941,1.679 C77.856,1.679 78.597,2.421 78.597,3.333 C78.597,4.235 77.856,4.982 76.941,4.982 C76.035,4.982 75.298,4.235 75.298,3.333 L75.298,3.333 Z M74.988,3.333 C74.988,4.418 75.86,5.262 76.941,5.262 C78.032,5.262 78.906,4.418 78.906,3.333 C78.906,2.246 78.032,1.377 76.941,1.377 C75.86,1.377 74.988,2.246 74.988,3.333 L74.988,3.333 Z M46.485,24.299 L52.047,24.299 L52.047,1.376 L46.485,1.376 L46.485,24.299 Z M44.268,1.377 L38.152,1.377 L32.842,17.945 L27.438,1.377 L21.227,1.377 L29.9,24.299 L35.433,24.299 L44.268,1.377 Z M24.601,24.299 L15.231,1.377 L9.716,1.377 L0,24.299 L6.123,24.299 L7.805,19.801 L16.675,19.801 L18.459,24.299 L24.601,24.299 Z M15.158,15.367 L9.394,15.367 L12.302,7.499 L15.158,15.367 Z M69.325,7.098 C67.877,5.798 66.539,5.363 65.112,5.363 C63.691,5.363 61.907,5.85 61.907,7.661 C61.907,9.182 63.266,9.694 65.438,10.378 C68.547,11.385 72.558,12.682 72.558,17.245 C72.558,22.521 68.318,24.881 63.785,24.881 C60.516,24.881 57.217,23.681 55.21,21.581 L58.599,18.099 C59.954,19.556 61.971,20.319 63.785,20.319 C65.466,20.319 66.958,19.67 66.958,17.825 C66.958,16.075 65.202,15.491 62.2,14.518 C59.288,13.578 56.342,12.127 56.342,7.987 C56.342,2.907 60.936,0.8 65.202,0.8 C67.798,0.8 70.712,1.776 72.717,3.614 L69.325,7.098 L69.325,7.098 Z" id="Fill-6" fill="#C12530"></path>
    </g>
</svg>